# xmcd
#
# Track frame offsets:
# 150
# 15438
# 85213
# 121530
# 172524
# 223883
# 255879
#
# Disc length: 4356 seconds
#
#
# Revision: 2
# Processed by: cddbd v1.5.2PL0 Copyright (c) Steve Scherf et al.
# Submitted via: FreeRIP 2.951 
#
DISCID=43110207
DTITLE=Abraham - Ask and It is Given Part II [CD2]
DYEAR=2005
DGENRE=Speech
TTITLE0=Process #4 - Virtual Reality
TTITLE1=Process #5 - The Proserity Game
TTITLE2=Process #6 - The Process of Meditation
TTITLE3=Process #7 - Evaluating Dreams
TTITLE4=Process #8 - The Book of Positive Aspects
TTITLE5=Process #9 - Scripting
TTITLE6=Process #10 - The Place Mat Process
EXTD=Esther and Jerry Hicks
EXTT0=
EXTT1=
EXTT2=
EXTT3=
EXTT4=
EXTT5=
EXTT6=
PLAYORDER=
